<svg xmlns="http://www.w3.org/2000/svg" viewBox="0 0 64 48" role="img" aria-label="World"><rect width="64" height="48" rx="3" fill="#dbeafe"/><path fill="#60a5fa" d="M31 6c9.9 0 18 8.1 18 18s-8.1 18-18 18-18-8.1-18-18S21.1 6 31 6Z"/><path fill="#22c55e" d="M24.3 8.9c2.9-1.2 6.8-1 8.1.4 1 .9-.4 2.6-2.2 2.9-2.5.4-2.8 1.9-5.6 1.7-2.1-.2-4.2-1.8-3.5-3 .4-.7 1.6-1.3 3.2-2Zm15.8 5.7c2.2 1.6 3.9 4 4.8 6.8-2.4.1-4.1-.7-5.3-2.2-1.5-1.9-3.6-2.1-3.5-3.5 0-1.1 2.2-2.2 4-1.1ZM18.4 20c2.8-.5 4.6.6 5.2 2.1.7 1.7-.6 3.7 1 5.1 1.7 1.5 4.6 1.5 5.2 3.7.5 1.8-1.1 4.1-3.8 6.8-5.8-1.8-10-7.2-10-13.7 0-1.4.2-2.7.6-4h1.8Zm17.9 7.6c2.5-.8 6 .4 7.4 2.3-1.8 4.3-5.6 7.6-10.2 8.7-.6-2.1-.6-4.1.5-5.7 1.1-1.7-.2-3.9 2.3-5.3Z"/></svg>
